 <svg  version="1.0" xmlns="http://www.w3.org/2000/svg"  width="900.000000pt" height="900.000000pt" viewBox="0 0 900.000000 900.000000"  preserveAspectRatio="xMidYMid meet">  <g transform="translate(0.000000,900.000000) scale(0.100000,-0.100000)" fill="#000000" stroke="none"> <path d="M3940 8134 c-17 -10 -43 -14 -82 -11 -36 3 -66 0 -82 -8 -14 -8 -63 -17 -108 -21 -46 -4 -86 -11 -89 -16 -4 -6 -28 -13 -55 -15 -27 -3 -53 -9 -59 -13 -5 -4 -29 -11 -52 -15 -24 -4 -45 -11 -49 -16 -3 -5 -17 -9 -32 -9 -15 0 -44 -9 -65 -20 -20 -11 -48 -20 -62 -20 -14 0 -33 -4 -43 -10 -37 -20 -112 -50 -126 -50 -9 0 -16 -4 -16 -10 0 -5 -7 -10 -16 -10 -8 0 -32 -9 -52 -19 -20 -11 -55 -28 -77 -38 -22 -10 -42 -20 -45 -23 -3 -3 -27 -16 -55 -30 -27 -14 -80 -44 -116 -67 -37 -24 -72 -43 -78 -43 -6 0 -11 -4 -11 -9 0 -8 -79 -63 -165 -114 -16 -10 -46 -34 -65 -53 -20 -19 -41 -34 -47 -34 -11 0 -342 -324 -378 -370 -42 -53 -112 -136 -147 -175 -21 -22 -38 -43 -38 -47 0 -4 -15 -27 -32 -51 -18 -24 -40 -54 -48 -67 -8 -12 -21 -28 -27 -36 -7 -7 -13 -17 -13 -23 0 -5 -6 -16 -13 -23 -7 -7 -30 -42 -52 -78 -21 -36 -42 -67 -46 -70 -4 -3 -17 -29 -30 -57 -12 -29 -26 -53 -31 -53 -4 0 -8 -9 -8 -19 0 -11 -6 -26 -12 -33 -7 -7 -20 -29 -29 -48 -9 -19 -30 -64 -47 -100 -18 -36 -32 -72 -32 -80 0 -9 -6 -24 -14 -35 -7 -11 -24 -51 -36 -90 -13 -38 -27 -74 -32 -79 -4 -6 -8 -22 -8 -37 0 -15 -6 -34 -14 -42 -8 -8 -17 -35 -21 -61 -4 -25 -11 -49 -16 -52 -5 -3 -9 -17 -9 -32 -1 -15 -7 -38 -15 -52 -8 -14 -14 -44 -15 -67 0 -23 -6 -48 -14 -55 -44 -44 -71 -1003 -30 -1063 9 -13 14 -49 14 -105 0 -56 4 -90 13 -98 6 -7 17 -39 24 -70 24 -114 30 -137 41 -159 7 -12 12 -35 12 -50 0 -16 7 -38 15 -49 8 -10 15 -29 15 -41 0 -12 6 -34 14 -50 19 -37 40 -87 61 -143 9 -25 21 -52 26 -60 5 -8 12 -22 15 -30 26 -68 40 -97 51 -111 7 -8 13 -23 13 -31 0 -9 7 -21 15 -28 8 -7 15 -18 15 -25 0 -23 49 -122 63 -128 7 -3 21 -21 31 -40 l16 -36 45 16 c85 29 111 110 55 171 -16 18 -30 39 -30 46 0 8 -7 19 -15 26 -8 7 -15 24 -15 39 0 15 -13 42 -30 61 -16 19 -30 44 -30 55 0 11 -7 28 -15 39 -7 10 -17 43 -21 73 -5 43 -11 57 -26 61 -12 3 -18 12 -17 26 1 11 -1 28 -4 36 -3 8 -11 35 -17 60 -7 24 -20 55 -31 68 -10 14 -19 37 -19 53 0 15 -4 30 -9 34 -5 3 -12 31 -16 63 -3 31 -11 68 -17 82 -5 14 -14 57 -19 95 -10 86 -25 183 -38 250 -22 115 -10 558 20 725 6 30 14 89 20 130 5 41 15 86 23 100 7 14 20 61 30 105 9 44 26 107 38 140 11 33 26 78 32 101 6 23 16 47 22 55 7 8 15 30 19 49 10 46 64 160 76 160 5 0 9 14 9 31 0 18 13 50 30 76 17 24 30 50 30 58 0 8 6 18 13 22 6 4 27 37 46 73 19 36 40 72 47 81 8 8 14 22 14 30 0 8 14 29 30 48 17 18 30 38 30 43 0 5 6 15 13 22 6 8 18 22 25 32 30 46 112 160 123 172 6 8 41 48 76 90 121 143 208 227 481 466 37 32 81 70 97 85 37 33 123 91 135 91 4 0 10 4 12 8 4 12 210 112 228 112 9 0 20 4 25 9 6 4 35 16 65 26 30 9 68 23 83 31 16 8 36 14 45 14 9 0 30 7 46 15 15 8 34 15 42 15 12 0 61 22 116 51 10 5 26 9 35 9 10 0 31 7 48 16 32 17 102 28 264 45 57 5 113 15 125 22 15 9 130 12 431 12 l410 0 77 58 c85 63 90 69 82 90 -7 19 -48 26 -209 37 -71 5 -170 13 -220 18 -49 5 -180 9 -290 10 -160 0 -205 -2 -225 -14z m620 -54 c205 -11 240 -15 240 -29 0 -5 -24 -25 -52 -45 l-53 -35 -100 12 c-128 15 -519 15 -655 0 -58 -7 -163 -19 -235 -27 -125 -14 -230 -42 -334 -87 -59 -26 -76 -33 -131 -54 -25 -9 -60 -23 -78 -31 -18 -8 -39 -14 -46 -14 -7 0 -35 -9 -62 -21 -27 -11 -65 -27 -84 -35 -19 -9 -44 -19 -55 -24 -11 -5 -42 -19 -69 -30 -43 -19 -89 -47 -202 -124 -43 -29 -108 -82 -167 -136 -27 -25 -56 -49 -65 -54 -10 -5 -36 -27 -59 -49 -22 -21 -54 -48 -70 -60 -83 -62 -283 -274 -371 -392 -53 -72 -101 -138 -107 -147 -5 -9 -38 -58 -73 -108 -34 -50 -79 -121 -99 -158 -20 -37 -47 -85 -59 -107 -41 -73 -102 -203 -139 -295 -9 -25 -21 -54 -26 -65 -38 -90 -109 -319 -109 -354 0 -12 -5 -31 -10 -42 -13 -23 -26 -83 -45 -209 -32 -200 -34 -243 -35 -526 0 -230 3 -301 15 -340 8 -27 15 -78 15 -114 0 -41 6 -72 15 -84 8 -11 15 -35 15 -53 0 -18 7 -53 16 -78 8 -25 14 -61 12 -78 -4 -36 -3 -39 -45 73 -49 132 -45 124 -59 105 -11 -15 -13 -13 -19 21 -4 22 -13 57 -20 79 -8 22 -17 81 -20 130 -3 50 -10 126 -16 170 -9 60 -8 118 1 235 7 85 16 243 20 350 7 185 17 256 54 390 8 30 20 75 27 100 13 52 28 95 84 240 9 25 24 63 32 85 9 22 21 54 29 70 7 17 19 45 26 64 26 69 160 325 184 352 8 8 14 21 14 27 0 7 4 12 9 12 5 0 13 10 17 23 4 12 10 24 13 27 4 3 18 23 31 45 13 22 29 45 35 51 5 6 17 22 25 34 24 36 83 115 90 120 4 3 11 12 16 21 5 9 41 52 79 94 39 43 84 94 100 114 76 92 257 257 390 356 190 142 429 289 555 339 8 3 22 10 30 14 40 23 83 42 92 42 5 0 26 7 46 16 111 48 144 59 217 79 28 7 75 21 105 30 30 9 73 20 95 25 22 5 53 13 68 19 16 6 47 11 70 11 23 0 60 5 82 11 99 27 477 36 805 19z m-3230 -4093 c0 -24 -3 -28 -10 -17 -13 20 -13 63 0 55 6 -3 10 -21 10 -38z m30 -74 c0 -22 -2 -25 -10 -13 -13 20 -13 40 0 40 6 0 10 -12 10 -27z"/> <path d="M5342 8134 c-18 -8 -37 -12 -42 -9 -5 3 -32 -4 -60 -15 -28 -11 -60 -20 -70 -20 -11 0 -20 -4 -20 -10 0 -5 -12 -13 -27 -16 -16 -4 -58 -26 -94 -50 -37 -24 -71 -44 -77 -44 -6 0 -12 -4 -14 -8 -1 -4 -20 -18 -40 -31 -77 -46 -172 -136 -241 -228 -26 -34 -47 -66 -47 -71 0 -5 -7 -15 -15 -22 -8 -7 -15 -21 -15 -31 0 -10 -6 -22 -12 -26 -14 -9 -42 -63 -53 -100 -3 -13 -11 -23 -16 -23 -5 0 -9 -12 -9 -26 0 -14 -6 -38 -14 -52 -18 -36 -34 -101 -46 -187 -6 -38 -15 -83 -21 -98 -7 -17 -9 -50 -5 -85 10 -97 54 -294 69 -308 4 -4 7 -22 7 -40 0 -19 6 -37 15 -42 9 -4 17 -19 20 -32 2 -13 9 -28 15 -34 5 -5 10 -18 10 -28 0 -9 9 -22 20 -28 11 -6 20 -15 20 -21 0 -15 73 -110 106 -139 37 -32 79 -50 115 -50 16 0 37 -4 47 -9 81 -39 92 -43 121 -36 35 8 105 -15 160 -52 19 -13 46 -26 60 -30 14 -3 40 -16 58 -29 17 -13 38 -24 45 -24 16 0 62 -47 71 -71 9 -26 143 -68 220 -69 20 0 54 -9 74 -20 44 -23 81 -26 108 -6 26 17 89 29 143 27 41 -2 43 -2 36 23 -6 24 -3 26 25 26 21 0 31 5 31 15 0 9 -9 15 -24 15 -14 0 -31 -7 -40 -15 -15 -16 -52 -20 -80 -9 -12 4 9 19 66 48 247 124 455 316 541 497 91 193 117 276 116 360 -3 128 -28 169 -41 65 -4 -33 -12 -64 -18 -70 -5 -5 -10 -17 -10 -26 0 -8 -12 -29 -27 -46 -16 -17 -41 -49 -57 -73 -17 -23 -41 -51 -55 -62 -14 -10 -32 -23 -38 -29 -7 -6 -26 -13 -42 -16 -23 -5 -32 -2 -40 15 -9 16 -21 21 -55 21 -30 0 -46 5 -50 15 -3 8 -16 15 -29 15 -14 0 -30 7 -37 15 -7 8 -20 15 -30 15 -10 0 -25 11 -34 25 -9 13 -30 38 -46 55 -17 17 -30 38 -30 47 0 8 -10 31 -21 50 -20 31 -21 43 -14 139 5 79 10 104 21 104 10 0 14 12 14 40 0 22 5 40 10 40 6 0 10 -4 10 -10 0 -5 7 -10 15 -10 8 0 15 6 15 13 0 6 12 20 28 30 15 11 35 30 46 44 15 21 16 27 5 34 -7 4 -10 12 -5 16 5 4 11 2 13 -4 8 -21 54 -16 60 7 6 22 16 25 42 11 10 -6 46 -12 80 -15 35 -3 66 -7 69 -10 3 -3 11 -1 18 5 10 9 15 7 20 -5 3 -9 12 -16 20 -16 9 0 14 -11 14 -29 0 -16 7 -34 15 -41 8 -7 15 -24 15 -37 0 -14 7 -40 16 -58 16 -34 16 -47 -1 -220 -4 -33 -12 -64 -19 -70 -7 -5 -16 -21 -19 -35 -4 -14 -18 -37 -32 -52 -14 -15 -25 -31 -25 -36 0 -6 -11 -13 -25 -16 -14 -4 -25 -11 -25 -16 0 -6 -9 -10 -19 -10 -10 0 -21 -7 -25 -15 -4 -11 1 -15 18 -15 13 0 29 7 36 15 7 8 19 15 26 15 8 0 14 7 14 15 0 8 5 15 11 15 16 0 79 73 79 92 0 9 7 23 15 32 8 8 15 27 15 43 0 15 7 37 15 47 18 24 21 201 4 255 -31 96 -70 158 -131 207 -18 14 -112 44 -138 44 -55 0 -161 -50 -241 -113 -19 -15 -89 -114 -89 -126 0 -5 -7 -22 -15 -37 -22 -43 -21 -243 2 -308 22 -60 132 -176 168 -176 8 0 15 -4 15 -10 0 -5 -9 -10 -19 -10 -11 0 -23 5 -26 10 -3 6 -15 10 -26 10 -22 0 -59 -73 -59 -116 0 -13 -4 -24 -10 -24 -5 0 -10 5 -10 10 0 21 -97 109 -155 141 l-60 34 -143 -3 c-141 -3 -144 -3 -195 -35 -73 -45 -137 -116 -182 -200 -36 -70 -37 -76 -34 -155 4 -81 -2 -97 -29 -70 -8 8 -15 8 -27 -2 -13 -11 -29 -10 -93 5 -42 10 -94 24 -115 31 -20 8 -54 14 -75 14 -20 0 -49 8 -64 18 -31 20 -118 110 -118 122 0 4 -7 13 -15 20 -8 7 -15 20 -15 30 0 10 -7 23 -15 30 -8 7 -15 21 -15 31 0 9 -7 24 -15 33 -8 8 -15 22 -15 31 0 9 -7 29 -15 44 -8 16 -17 48 -21 72 -4 24 -12 50 -18 58 -7 9 -11 67 -11 160 1 116 4 154 18 185 9 21 17 50 17 64 0 28 25 120 46 167 7 17 15 37 19 45 6 16 16 33 59 99 16 25 36 61 45 80 45 98 143 202 262 279 35 22 69 45 75 49 35 27 190 103 209 103 10 0 31 6 48 14 38 17 218 40 302 39 75 0 247 -22 260 -33 6 -4 26 -11 45 -14 33 -7 70 -22 130 -52 94 -47 157 -80 166 -89 6 -5 22 -17 35 -25 39 -26 135 -114 157 -145 12 -16 35 -46 52 -65 43 -50 43 -50 75 -105 34 -57 55 -99 85 -170 12 -27 25 -59 30 -70 5 -11 11 -45 15 -75 3 -30 11 -60 16 -66 6 -7 13 -70 16 -141 3 -81 10 -132 17 -138 7 -5 15 -18 19 -27 10 -27 24 -22 36 13 15 44 14 76 -5 105 -12 17 -15 36 -10 64 8 51 -12 128 -36 136 -15 4 -17 13 -11 64 4 44 2 65 -9 82 -9 13 -19 38 -22 56 -4 17 -12 34 -17 37 -5 4 -9 15 -9 26 0 11 -7 22 -15 25 -8 4 -15 12 -15 19 0 6 -9 22 -20 35 -11 12 -17 26 -14 31 12 20 -183 246 -287 333 -35 30 -154 99 -201 117 -16 6 -28 15 -28 20 0 5 -10 9 -22 9 -13 0 -36 9 -53 20 -16 11 -40 20 -51 20 -12 0 -35 7 -50 15 -16 8 -43 15 -61 15 -17 0 -35 5 -38 10 -10 17 -363 11 -403 -6z m355 -1455 c17 -6 37 -17 43 -25 7 -7 22 -14 33 -14 20 0 67 -36 67 -51 0 -4 12 -20 26 -36 14 -15 28 -40 31 -55 3 -15 12 -33 19 -39 20 -17 19 -135 -1 -143 -8 -3 -15 -16 -15 -29 0 -29 -116 -144 -151 -149 -36 -5 -36 -28 0 -28 21 0 31 5 31 15 0 8 8 15 19 15 16 0 41 25 116 113 8 9 15 23 15 30 0 8 9 24 20 37 11 13 20 37 20 54 0 24 3 27 10 16 30 -46 1 -137 -65 -203 -63 -64 -64 -64 -145 -104 -85 -41 -190 -55 -284 -38 -81 15 -90 22 -42 30 21 4 36 13 36 21 0 14 -16 18 -61 15 -16 -1 -29 4 -32 14 -4 8 -18 15 -35 15 -21 0 -44 15 -87 54 -47 44 -57 59 -53 79 4 19 0 27 -14 30 -33 9 -17 117 23 145 15 11 20 22 16 41 -3 14 0 37 7 50 13 23 14 23 25 5 10 -18 14 -15 56 31 25 28 47 58 51 68 4 14 12 17 31 12 34 -8 60 2 66 26 5 19 11 19 99 14 51 -4 107 -11 125 -16z m443 -19 c0 -13 -30 -13 -50 0 -11 7 -7 10 18 10 17 0 32 -4 32 -10z m280 -45 c0 -15 -28 -64 -50 -85 -14 -14 -43 -47 -65 -73 -22 -26 -45 -47 -52 -47 -7 0 -13 -10 -13 -22 0 -21 -55 -88 -72 -88 -9 0 -33 -20 -79 -64 -37 -35 -59 -29 -59 18 0 26 7 40 30 59 17 14 30 32 30 40 0 8 18 27 41 42 51 36 59 52 59 113 0 29 6 54 13 61 8 6 44 15 82 20 37 6 73 15 78 20 11 11 57 16 57 6z m-338 -35 c21 -10 48 -51 48 -74 0 -5 -12 -27 -26 -47 -24 -34 -28 -37 -71 -34 -38 3 -49 8 -60 29 -8 14 -18 26 -23 26 -6 0 -10 17 -10 38 0 32 5 39 33 53 39 20 78 23 109 9z"/> <path d="M5630 6095 c0 -10 11 -15 35 -15 24 0 35 5 35 15 0 10 -11 15 -35 15 -24 0 -35 -5 -35 -15z"/> <path d="M5426 7961 c-3 -5 -21 -12 -40 -15 -63 -12 -159 -77 -192 -131 -47 -77 -56 -108 -51 -162 12 -114 127 -262 250 -322 66 -32 72 -33 163 -29 54 2 99 9 106 16 7 7 22 12 34 12 13 0 29 7 38 15 8 8 20 15 26 15 17 0 150 130 150 147 0 7 4 13 9 13 16 0 44 94 44 145 0 68 -27 137 -78 193 -41 46 -116 92 -148 92 -9 0 -19 5 -22 10 -8 12 -282 14 -289 1z m96 -57 c22 -11 43 -14 74 -9 27 4 50 2 63 -6 15 -10 25 -10 46 -1 35 16 62 15 69 -3 3 -8 12 -15 20 -15 19 0 96 -88 96 -109 0 -9 6 -26 14 -37 18 -26 24 -88 9 -105 -6 -8 -15 -28 -19 -44 -17 -67 -167 -205 -224 -205 -15 0 -33 -7 -41 -16 -10 -12 -28 -15 -93 -11 -87 4 -152 31 -210 85 -41 39 -116 144 -110 154 3 4 -4 20 -15 34 -21 26 -27 67 -15 99 6 15 8 14 25 -1 17 -16 19 -16 25 0 4 10 1 28 -6 42 -12 22 -10 27 36 69 36 33 55 44 71 40 16 -4 23 1 28 15 5 15 15 20 41 20 19 0 34 5 34 10 0 15 47 12 82 -6z"/> <path d="M3126 7583 c-32 -2 -65 -11 -73 -19 -8 -7 -32 -14 -54 -14 -21 0 -39 -4 -39 -10 0 -5 -5 -10 -11 -10 -16 0 -101 -41 -116 -56 -8 -8 -19 -14 -24 -14 -16 0 -128 -83 -183 -135 -62 -58 -176 -206 -176 -228 0 -8 -7 -20 -15 -27 -8 -7 -15 -18 -15 -24 0 -6 -6 -23 -14 -38 -8 -15 -17 -40 -21 -57 -4 -17 -11 -33 -16 -36 -5 -4 -9 -39 -9 -79 0 -43 -6 -89 -15 -109 -19 -46 -19 -116 0 -141 8 -11 15 -38 15 -60 0 -23 5 -59 11 -81 6 -22 13 -52 16 -67 3 -15 11 -33 19 -39 8 -6 14 -24 14 -39 0 -15 7 -33 15 -40 8 -7 15 -20 15 -30 0 -10 7 -23 15 -30 8 -7 15 -17 15 -22 0 -14 119 -167 138 -177 9 -5 88 -11 176 -13 l158 -5 28 26 c30 27 80 96 80 110 0 4 25 25 55 46 30 20 55 41 55 45 0 15 99 42 130 35 26 -6 88 8 115 26 32 21 66 18 132 -12 l68 -31 50 18 c28 9 56 21 63 27 25 19 13 61 -33 114 l-46 52 2 125 c3 144 9 159 103 256 59 60 103 78 138 57 12 -8 21 -7 32 2 20 16 38 6 99 -57 32 -34 47 -58 47 -76 0 -15 7 -34 15 -42 22 -22 21 -220 -1 -252 -14 -21 -14 -24 7 -53 25 -36 111 -79 140 -72 10 3 19 13 19 22 0 9 8 21 19 28 14 9 20 28 25 80 3 37 8 98 12 136 5 50 3 71 -7 84 -10 11 -13 41 -11 100 2 67 -1 85 -13 89 -8 4 -15 17 -15 31 0 14 -9 36 -20 50 -11 14 -20 34 -20 44 0 10 -4 21 -10 24 -5 3 -10 14 -10 24 0 10 -9 26 -20 36 -11 10 -20 26 -20 35 0 9 -10 28 -22 42 -13 13 -59 64 -102 112 -77 85 -224 196 -259 196 -9 0 -18 4 -21 9 -7 11 -88 51 -103 51 -6 0 -24 7 -39 15 -16 8 -44 15 -63 15 -19 0 -42 7 -51 15 -12 11 -53 15 -165 18 -83 3 -176 3 -209 0z m360 -76 c38 -19 107 -46 154 -61 152 -49 239 -99 335 -193 82 -80 166 -189 180 -232 3 -12 11 -21 16 -21 5 0 9 -9 9 -21 0 -11 6 -33 14 -47 22 -41 44 -129 51 -204 4 -37 11 -70 16 -73 5 -4 9 -30 9 -59 0 -40 -5 -57 -20 -71 -18 -17 -20 -17 -20 -1 0 46 -23 212 -31 228 -19 35 -32 20 -26 -29 8 -61 -8 -242 -22 -256 -8 -8 -11 26 -11 120 0 134 -4 150 -55 242 -15 28 -67 73 -104 93 -14 7 -29 17 -32 21 -15 20 -88 19 -128 -1 -73 -38 -152 -118 -188 -188 -21 -41 -23 -59 -23 -195 0 -114 4 -157 15 -179 10 -19 11 -31 5 -35 -15 -9 -2 -25 15 -18 8 3 15 1 15 -5 0 -15 -91 -26 -100 -12 -8 13 -74 32 -105 31 -104 -3 -247 -21 -276 -34 -34 -15 -61 -39 -147 -130 -18 -19 -46 -37 -62 -40 -16 -4 -47 -22 -68 -41 -38 -34 -40 -35 -121 -34 -64 1 -88 5 -106 20 -13 10 -30 18 -39 18 -9 0 -16 4 -16 9 0 6 -14 18 -31 28 -26 15 -30 23 -26 48 5 29 -30 124 -45 125 -4 0 -5 -7 -2 -15 4 -8 3 -23 0 -32 -6 -15 -10 -13 -31 12 -13 17 -24 37 -25 46 0 9 -7 22 -15 29 -9 7 -15 29 -15 52 0 21 -7 55 -15 75 -10 24 -15 69 -15 142 1 98 5 141 28 291 9 61 74 199 124 263 108 140 289 276 431 322 29 10 70 23 92 31 61 20 80 21 216 18 118 -4 129 -6 195 -37z"/> <path d="M3200 7425 c-104 -36 -166 -79 -229 -159 -24 -31 -26 -104 -5 -145 47 -92 168 -223 233 -252 64 -28 237 -27 298 2 59 29 122 96 162 173 28 55 33 76 33 130 0 51 -5 71 -24 97 -43 61 -86 94 -158 123 -25 10 -54 23 -65 29 -34 18 -195 19 -245 2z m175 -45 c3 -5 31 -10 61 -10 39 0 56 -4 60 -15 4 -8 15 -15 25 -15 10 0 43 -25 74 -55 50 -51 55 -59 55 -100 0 -62 -42 -137 -120 -215 -65 -66 -79 -70 -214 -60 -92 6 -121 12 -139 26 -37 32 -126 129 -127 137 0 5 -11 23 -25 41 -32 42 -34 107 -4 137 16 16 23 18 35 8 9 -7 14 -8 14 -1 0 6 -5 14 -11 18 -14 8 33 54 55 54 9 0 20 9 26 20 9 16 18 19 48 15 23 -4 46 0 62 9 29 16 116 21 125 6z"/> <path d="M2661 6969 c-47 -25 -96 -74 -116 -117 -10 -21 -23 -46 -29 -57 -6 -11 -12 -75 -14 -142 -3 -97 -1 -128 12 -154 9 -18 16 -41 16 -51 0 -10 7 -21 15 -24 8 -4 15 -11 15 -18 0 -10 31 -46 62 -72 11 -9 58 -32 133 -66 21 -9 81 3 180 38 28 9 56 18 63 20 6 2 12 13 12 24 0 11 7 23 15 26 8 4 15 17 15 29 0 13 4 26 9 29 31 19 38 254 11 347 -13 45 -87 126 -160 173 -51 34 -59 36 -130 35 -52 -1 -86 -7 -109 -20z m209 -54 c58 -35 86 -61 121 -109 29 -38 29 -41 29 -173 0 -104 -4 -143 -16 -169 -19 -39 -79 -94 -136 -124 -47 -25 -139 -28 -158 -5 -7 8 -18 15 -25 15 -15 0 -78 63 -92 92 -44 96 -48 112 -45 212 2 66 8 107 18 120 8 11 14 30 14 41 1 25 55 83 106 112 53 31 123 26 184 -12z"/> <path d="M3265 6729 c-44 -23 -91 -71 -101 -102 -3 -10 -3 -42 0 -71 8 -60 39 -101 104 -134 50 -26 75 -28 92 -7 7 8 20 15 29 15 20 0 109 91 130 133 12 23 12 31 0 55 -24 47 -62 83 -114 108 -62 29 -89 30 -140 3z m150 -58 c48 -27 50 -30 53 -76 3 -46 1 -50 -40 -87 -24 -21 -48 -38 -54 -38 -6 0 -17 -7 -24 -15 -21 -26 -47 -17 -100 35 -42 43 -50 57 -50 89 0 42 26 77 76 104 42 23 82 20 139 -12z"/> <path d="M3525 6469 c-9 -26 12 -51 24 -30 10 15 3 51 -9 51 -5 0 -12 -9 -15 -21z"/> <path d="M3440 6411 c-29 -16 -87 -31 -121 -32 -19 0 -43 -4 -53 -8 -18 -7 -18 -8 5 -14 13 -4 49 -7 80 -7 48 0 57 3 62 20 3 12 14 20 26 20 12 0 21 6 21 15 0 17 0 17 -20 6z"/> <path d="M4840 7441 c-88 -18 -172 -103 -215 -216 -23 -62 -29 -305 -7 -326 6 -7 12 -19 12 -27 0 -20 42 -102 52 -102 4 0 8 -6 8 -12 0 -18 82 -88 102 -88 9 0 20 -4 23 -10 8 -12 139 -13 163 -1 9 5 39 19 65 31 58 26 157 120 186 175 18 35 21 57 21 181 0 114 -3 144 -15 154 -8 7 -15 19 -15 27 0 25 -72 108 -136 157 -77 59 -150 76 -244 57z m-46 -86 c3 -9 18 -15 34 -15 16 0 35 7 42 15 16 19 53 19 92 -1 24 -12 36 -14 55 -5 34 16 40 14 47 -14 4 -15 13 -25 25 -25 10 0 27 -12 37 -26 10 -14 24 -32 29 -38 6 -7 20 -30 32 -53 19 -35 22 -55 22 -162 -1 -90 -5 -125 -15 -136 -8 -7 -14 -20 -14 -28 0 -17 -99 -113 -132 -127 -12 -5 -30 -14 -38 -18 -47 -27 -65 -32 -115 -32 -55 0 -100 18 -118 47 -4 7 -15 13 -22 13 -8 0 -15 7 -15 15 0 9 -7 18 -15 21 -8 4 -15 14 -15 24 0 10 -7 23 -16 31 -12 10 -14 23 -9 55 5 37 3 44 -15 54 -20 10 -21 18 -16 68 3 31 6 66 6 76 1 11 10 26 20 33 12 9 20 26 20 42 0 16 7 34 15 41 8 7 15 18 15 24 0 6 12 28 26 49 20 30 23 41 14 52 -12 14 -6 35 10 35 4 0 10 -7 14 -15z"/> <path d="M5488 7200 c-15 -4 -34 -14 -42 -22 -7 -7 -23 -20 -35 -28 -29 -20 -61 -84 -61 -123 0 -41 33 -103 77 -144 31 -29 41 -33 91 -33 73 0 135 31 179 88 27 36 33 53 33 93 0 42 -5 54 -36 89 -65 71 -141 101 -206 80z m129 -72 c56 -48 72 -70 73 -96 0 -56 -74 -124 -151 -137 -52 -9 -98 21 -127 84 -27 57 -27 73 -2 96 11 10 20 24 20 32 0 7 5 13 11 13 6 0 22 9 36 20 40 31 95 27 140 -12z"/> <path d="M6627 6873 c-4 -3 -7 -27 -7 -53 0 -25 -7 -55 -15 -66 -8 -10 -15 -35 -15 -55 0 -23 -6 -39 -15 -43 -8 -3 -15 -17 -15 -31 0 -14 -7 -28 -15 -31 -8 -4 -15 -17 -15 -30 0 -14 -7 -27 -15 -30 -8 -4 -15 -14 -15 -24 0 -10 -7 -23 -15 -30 -8 -7 -15 -19 -15 -26 0 -8 -4 -14 -9 -14 -5 0 -12 -9 -16 -20 -3 -10 -18 -34 -33 -51 -35 -42 -190 -199 -196 -199 -3 0 -20 -13 -38 -30 -18 -16 -38 -30 -46 -30 -7 0 -15 -7 -18 -15 -4 -8 -14 -15 -25 -15 -10 0 -22 -6 -26 -14 -4 -8 -17 -15 -27 -17 -26 -5 -33 -29 -8 -29 11 0 23 -8 26 -17 5 -12 9 -14 18 -5 9 9 9 15 0 24 -18 18 -15 28 9 28 12 0 27 7 34 17 10 13 17 14 44 5 21 -8 30 -8 25 -1 -12 20 18 61 42 56 16 -3 20 0 17 14 -3 12 10 28 41 51 25 18 45 37 46 42 0 5 25 34 55 64 30 31 55 61 55 68 0 6 6 14 13 17 7 2 23 25 35 51 13 25 28 46 33 46 5 0 9 10 9 23 0 12 9 28 20 35 12 7 18 17 14 23 -3 6 1 18 9 27 8 9 17 29 21 45 3 15 11 27 16 27 6 0 10 18 10 40 0 28 4 40 14 40 20 0 29 33 21 78 -7 43 -18 65 -28 55z"/> <path d="M6759 6812 c-10 -17 -15 -52 -15 -97 l1 -70 38 -9 c37 -10 52 -38 25 -50 -10 -3 -9 -8 2 -18 31 -27 54 -73 59 -120 1 -4 10 -8 22 -10 11 -2 28 -16 36 -33 9 -16 20 -37 24 -45 5 -8 18 -34 29 -57 11 -23 24 -45 30 -48 15 -9 50 -85 50 -108 0 -11 14 -42 30 -69 17 -26 30 -54 30 -62 0 -7 9 -25 20 -39 11 -14 20 -40 20 -59 0 -19 7 -43 15 -54 8 -10 15 -31 15 -46 0 -15 4 -29 9 -32 4 -3 11 -26 13 -51 3 -25 13 -54 21 -63 10 -11 18 -48 23 -104 5 -68 10 -89 23 -93 18 -5 44 -57 45 -90 1 -28 33 -30 89 -5 49 22 54 29 37 46 -13 13 13 79 35 88 14 5 14 9 0 35 -8 17 -15 40 -15 53 0 13 -7 36 -15 52 -8 15 -15 38 -15 50 0 11 -9 35 -20 51 -11 17 -20 42 -20 57 0 15 -4 29 -9 32 -4 3 -11 27 -15 52 -3 26 -12 55 -19 63 -8 9 -22 46 -31 83 -10 37 -24 72 -32 79 -8 6 -14 20 -14 30 0 11 -4 19 -9 19 -5 0 -13 10 -16 23 -4 12 -12 36 -20 52 -7 17 -19 45 -25 62 -7 18 -21 42 -31 54 -10 12 -19 30 -19 39 0 10 -7 23 -15 30 -8 7 -15 19 -15 26 0 8 -12 33 -27 57 -15 23 -38 62 -52 87 -22 42 -83 117 -157 195 -22 23 -42 33 -75 38 -42 6 -46 4 -60 -21z m135 -78 c9 -3 16 -11 16 -18 0 -6 8 -19 18 -27 9 -9 24 -26 32 -39 8 -12 20 -28 26 -34 6 -7 15 -22 18 -34 4 -12 11 -22 16 -22 4 0 10 -8 14 -17 3 -10 10 -25 15 -33 5 -8 12 -22 15 -30 4 -8 17 -35 31 -59 14 -24 25 -50 25 -57 0 -6 7 -14 15 -18 8 -3 15 -14 15 -25 0 -11 8 -34 17 -53 50 -100 49 -98 33 -98 -5 0 -10 5 -10 10 0 6 -18 34 -41 62 -26 34 -39 58 -35 71 3 11 -8 40 -26 68 -24 40 -35 49 -57 49 -15 0 -35 8 -44 18 -25 27 -67 124 -67 155 0 15 -11 50 -25 77 -32 64 -32 66 -1 54z m346 -615 c0 -10 -4 -19 -10 -19 -5 0 -10 12 -10 26 0 14 4 23 10 19 6 -3 10 -15 10 -26z m30 -69 c0 -11 -4 -20 -10 -20 -5 0 -10 9 -10 20 0 11 5 20 10 20 6 0 10 -9 10 -20z m-20 -211 c0 -21 -4 -39 -10 -39 -5 0 -10 21 -10 46 0 27 4 43 10 39 6 -3 10 -24 10 -46z m17 -116 c-3 -10 -5 -2 -5 17 0 19 2 27 5 18 2 -10 2 -26 0 -35z"/> <path d="M4085 6206 c-173 -12 -284 -28 -310 -47 -5 -4 -29 -10 -52 -14 -23 -3 -47 -13 -54 -21 -6 -8 -21 -14 -34 -14 -20 0 -60 -15 -107 -41 -10 -5 -24 -9 -31 -9 -8 0 -24 -9 -37 -20 -13 -11 -34 -20 -47 -20 -12 0 -23 -4 -23 -9 0 -5 -10 -13 -22 -17 -13 -3 -42 -19 -66 -35 -24 -16 -45 -29 -48 -29 -5 0 -123 -84 -144 -103 -8 -7 -35 -29 -60 -48 -25 -18 -56 -47 -70 -63 -14 -17 -38 -44 -55 -62 -16 -18 -48 -54 -70 -80 -22 -26 -50 -59 -62 -73 -40 -46 -43 -50 -43 -60 0 -6 -6 -14 -14 -18 -22 -13 -105 -139 -150 -230 -14 -28 -30 -54 -35 -58 -5 -3 -12 -19 -16 -35 -4 -17 -10 -30 -15 -30 -5 0 -11 -13 -15 -30 -4 -16 -11 -32 -16 -35 -5 -4 -9 -19 -9 -34 0 -15 -7 -36 -15 -47 -8 -10 -15 -35 -15 -55 0 -20 -6 -42 -14 -48 -7 -6 -16 -34 -19 -63 -4 -28 -11 -56 -17 -62 -12 -12 -13 -114 -3 -207 l7 -64 17 125 c21 147 31 200 49 255 41 128 54 163 66 192 8 17 14 36 14 42 0 6 14 33 30 59 17 27 30 52 30 55 0 15 140 235 170 267 16 18 31 35 95 115 22 27 47 57 55 66 115 123 194 191 295 255 17 10 32 21 35 24 12 14 131 81 195 110 39 17 84 37 100 45 57 26 100 43 140 55 22 7 60 19 83 27 123 43 454 65 652 44 118 -13 234 -33 245 -42 5 -5 19 -9 32 -9 21 0 108 -26 177 -53 64 -26 284 -140 336 -176 112 -76 146 -101 184 -135 22 -20 43 -36 46 -36 13 0 161 -153 214 -220 56 -70 162 -229 173 -257 4 -10 9 -20 12 -23 12 -10 71 -136 71 -151 0 -8 7 -24 15 -35 8 -10 15 -29 15 -41 0 -12 6 -34 14 -50 18 -37 46 -126 46 -147 0 -9 -6 -29 -13 -44 -12 -23 -11 -44 3 -142 35 -232 34 -476 -1 -635 -38 -173 -130 -414 -207 -545 -126 -213 -357 -470 -466 -520 -97 -44 -140 -60 -157 -60 -11 0 -19 -4 -19 -9 0 -12 -39 -21 -45 -10 -3 4 6 11 20 15 14 3 25 10 25 14 0 5 23 22 50 39 85 52 181 131 273 225 48 49 87 93 87 97 0 4 18 29 40 56 127 152 221 337 294 582 9 29 16 60 16 67 0 8 4 22 9 32 29 55 57 462 39 562 -5 25 -13 82 -18 128 -5 46 -14 91 -20 102 -5 10 -10 30 -10 44 0 98 -154 431 -270 585 -97 127 -263 298 -340 348 -30 20 -77 53 -105 74 -60 44 -258 149 -335 178 -86 32 -280 79 -371 91 -105 13 -344 13 -468 0 -106 -11 -344 -71 -403 -101 -21 -11 -71 -32 -111 -48 -87 -33 -303 -173 -409 -265 -128 -110 -279 -295 -375 -461 -109 -188 -160 -320 -208 -543 -46 -214 -50 -273 -35 -460 7 -92 16 -212 20 -267 4 -55 9 -107 10 -115 2 -8 2 -31 1 -50 l-3 -35 -10 30 c-6 17 -17 38 -25 47 -8 9 -17 45 -20 80 -3 35 -10 69 -16 76 -5 7 -12 76 -14 155 -2 78 -6 153 -9 167 -5 24 -6 24 -17 5 -15 -25 -13 -311 2 -329 6 -7 13 -49 17 -94 5 -54 11 -83 20 -86 9 -3 14 -21 14 -49 0 -46 19 -91 63 -148 15 -20 27 -39 27 -43 0 -28 102 -230 146 -288 58 -78 246 -278 262 -278 6 0 12 -4 12 -10 0 -5 13 -16 30 -25 16 -8 49 -33 72 -55 24 -22 58 -45 76 -52 17 -7 32 -18 32 -25 0 -6 16 -25 36 -40 20 -15 41 -34 48 -42 38 -46 80 -81 99 -81 12 0 39 -11 59 -25 20 -14 45 -25 54 -25 9 0 32 -9 51 -21 24 -15 37 -18 46 -11 9 7 29 5 68 -8 66 -23 270 -31 277 -12 11 33 35 42 115 43 99 1 131 9 135 33 6 27 -17 37 -65 30 -36 -5 -43 -3 -53 16 -11 21 -16 22 -91 15 -67 -6 -80 -5 -85 9 -4 11 -19 16 -53 16 -25 0 -55 7 -65 15 -11 8 -34 15 -50 15 -17 0 -40 7 -50 15 -11 8 -33 15 -48 15 -16 0 -31 7 -34 15 -4 8 -16 15 -29 15 -12 0 -28 7 -35 15 -7 8 -23 15 -37 15 -13 0 -26 7 -29 15 -4 8 -17 15 -30 15 -14 0 -24 6 -24 14 0 8 -10 16 -22 18 -25 4 -37 28 -14 28 18 0 21 16 5 25 -6 4 -17 -1 -25 -11 -13 -18 -14 -18 -31 1 -10 12 -30 27 -45 34 -15 8 -38 25 -50 38 -19 20 -20 25 -8 33 13 8 13 11 1 22 -11 10 -14 10 -18 1 -7 -18 -33 -16 -33 2 0 8 -9 15 -20 15 -23 0 -63 36 -55 50 7 12 -33 52 -45 45 -13 -8 -52 33 -44 46 4 6 2 14 -3 18 -6 3 -14 20 -20 36 -6 20 -17 31 -32 33 -23 4 -111 83 -111 100 0 14 -32 75 -47 90 -7 7 -13 19 -13 27 0 7 -4 15 -8 17 -12 5 -82 147 -82 166 -1 19 -31 110 -43 130 -5 6 -13 36 -18 65 -6 28 -18 90 -27 137 -24 125 -23 491 2 575 10 33 24 89 31 125 13 64 29 118 46 152 5 10 9 26 9 35 0 10 7 29 15 43 7 14 26 48 40 75 14 28 37 68 49 90 13 22 39 68 57 101 47 86 143 201 277 331 50 49 233 193 246 193 3 0 25 14 49 30 25 17 49 30 55 30 5 0 15 7 22 15 7 8 28 17 49 21 20 3 56 17 80 30 24 13 50 24 58 24 8 0 29 6 46 14 18 8 59 21 92 30 33 9 83 24 110 33 65 22 147 32 327 39 118 5 160 3 213 -10 79 -19 169 -40 250 -57 33 -6 70 -18 82 -25 12 -8 27 -14 34 -14 14 0 176 -77 209 -100 14 -10 36 -21 50 -25 14 -4 52 -32 85 -63 33 -30 83 -67 111 -83 27 -16 66 -47 85 -70 19 -22 45 -47 59 -54 44 -23 70 -55 70 -85 0 -18 9 -36 28 -52 15 -13 35 -40 45 -60 11 -19 32 -45 48 -57 17 -13 29 -31 29 -45 0 -22 37 -66 56 -66 5 0 10 -12 9 -27 0 -24 4 -28 24 -25 20 2 23 -1 19 -23 -4 -18 0 -29 13 -36 14 -7 17 -17 13 -39 -5 -25 -4 -28 13 -24 16 4 22 -5 36 -53 12 -40 16 -72 11 -101 -6 -38 -4 -42 14 -42 13 0 22 -9 26 -25 4 -14 12 -25 19 -25 9 0 13 -22 13 -83 1 -56 6 -92 18 -114 13 -27 16 -62 14 -226 -2 -127 -7 -199 -14 -208 -7 -8 -15 -42 -19 -77 -4 -34 -11 -64 -15 -67 -5 -3 -11 -23 -15 -45 -4 -22 -11 -42 -16 -46 -5 -3 -9 -28 -9 -55 0 -35 -4 -51 -15 -55 -8 -4 -15 -15 -15 -25 0 -11 -9 -36 -20 -56 -11 -21 -20 -43 -20 -50 0 -7 -4 -13 -10 -13 -5 0 -10 -11 -10 -24 0 -14 -7 -31 -15 -40 -8 -8 -15 -24 -15 -35 0 -11 -6 -24 -13 -28 -7 -4 -33 -39 -59 -78 -25 -38 -58 -83 -72 -100 -15 -16 -39 -48 -54 -69 -39 -57 -133 -156 -162 -171 -14 -8 -45 -32 -70 -54 -25 -23 -50 -41 -57 -41 -6 0 -13 -3 -15 -7 -5 -12 -95 -73 -107 -73 -6 0 -16 -9 -23 -20 -7 -11 -20 -20 -29 -20 -9 0 -22 -7 -29 -15 -7 -8 -18 -15 -24 -15 -7 0 -22 -9 -35 -21 -17 -16 -20 -24 -10 -35 14 -18 105 -9 130 12 8 8 27 14 42 14 14 0 29 5 32 10 3 6 16 10 29 10 13 0 31 9 41 20 11 12 31 20 50 20 17 0 37 6 43 12 10 10 17 10 32 0 27 -16 55 -15 70 3 7 8 27 15 46 15 42 0 69 32 51 61 -9 15 -8 21 8 33 11 9 25 14 32 11 17 -6 97 76 113 116 7 19 28 52 45 74 29 36 105 146 147 213 15 24 35 64 124 245 13 27 24 58 24 70 1 12 7 33 15 47 8 14 14 37 15 51 0 14 7 34 15 45 8 10 15 35 15 54 0 19 7 62 15 95 8 33 14 105 15 161 0 55 5 138 11 184 8 60 8 98 1 134 -6 28 -15 89 -21 136 -5 47 -14 103 -20 125 -6 22 -17 65 -24 95 -13 55 -26 90 -53 143 -8 16 -14 37 -14 47 0 10 -4 21 -9 24 -5 3 -12 21 -15 40 -4 19 -13 39 -21 46 -8 7 -15 23 -15 35 0 12 -7 28 -15 35 -8 7 -15 17 -15 22 0 6 -13 30 -30 55 -16 24 -30 48 -30 52 0 5 -7 11 -15 15 -8 3 -15 15 -15 26 0 11 -4 20 -9 20 -5 0 -25 26 -45 58 -19 31 -56 80 -83 108 -93 98 -123 133 -123 144 0 5 -6 10 -13 10 -7 0 -29 14 -48 31 -19 17 -62 51 -96 77 -35 25 -63 49 -63 54 0 4 -7 8 -15 8 -8 0 -23 9 -32 20 -10 11 -23 20 -30 20 -7 0 -13 7 -13 15 0 9 -9 15 -24 15 -14 0 -28 5 -31 10 -4 6 -29 20 -56 32 -27 12 -49 25 -49 30 0 4 -11 8 -24 8 -13 0 -29 7 -36 15 -7 8 -18 15 -26 15 -7 0 -19 6 -26 13 -16 15 -71 37 -120 47 -21 4 -44 12 -52 19 -7 6 -35 13 -61 15 -26 2 -52 9 -58 15 -6 6 -19 11 -29 11 -9 0 -38 7 -63 15 -25 9 -84 17 -133 19 -48 2 -107 6 -132 9 -25 3 -131 0 -235 -7z m1955 -1517 c0 -10 -4 -19 -10 -19 -5 0 -10 12 -10 26 0 14 4 23 10 19 6 -3 10 -15 10 -26z m-3461 -971 c1 -15 8 -33 16 -42 8 -8 15 -21 16 -28 0 -7 14 -35 30 -63 16 -27 32 -57 36 -65 3 -8 19 -31 35 -51 15 -20 28 -39 28 -42 0 -21 141 -206 216 -282 63 -65 244 -215 259 -215 2 0 31 -20 64 -45 32 -25 66 -45 74 -45 9 0 18 -4 21 -9 8 -12 84 -51 100 -51 7 0 19 -7 26 -15 7 -8 23 -15 35 -15 13 0 25 -7 29 -15 3 -8 14 -15 25 -15 11 0 35 -6 53 -14 81 -33 174 -59 288 -78 85 -14 57 -26 -65 -27 -109 -1 -169 15 -355 95 -157 67 -196 89 -347 201 -129 95 -399 354 -428 410 -10 21 -27 48 -37 61 -9 13 -31 60 -48 105 -43 113 -70 168 -93 194 -20 23 -34 113 -21 143 8 19 42 -53 43 -92z"/> <path d="M6001 5864 c-30 -8 -60 -13 -66 -10 -6 2 -32 0 -58 -5 -60 -11 -229 -15 -244 -6 -17 11 -43 -3 -43 -22 0 -10 14 -33 30 -51 17 -19 29 -41 28 -49 -5 -23 53 -82 73 -76 11 4 27 -6 45 -26 16 -18 43 -46 60 -64 17 -18 36 -46 43 -63 7 -18 28 -48 47 -67 18 -20 42 -56 53 -80 11 -25 24 -45 29 -45 6 0 15 -12 21 -27 7 -16 30 -62 51 -103 22 -40 40 -79 40 -86 0 -6 6 -17 14 -23 8 -6 16 -24 19 -39 5 -28 24 -85 37 -112 4 -9 11 -36 15 -60 4 -25 12 -51 18 -58 13 -16 36 -150 44 -252 3 -41 9 -79 13 -85 4 -5 8 -90 8 -189 1 -98 4 -192 7 -207 4 -19 1 -36 -9 -51 -10 -14 -16 -44 -16 -78 -1 -32 -7 -63 -15 -74 -8 -11 -15 -34 -15 -52 0 -17 -6 -37 -14 -43 -7 -6 -16 -32 -20 -58 -3 -25 -10 -51 -15 -57 -4 -6 -16 -36 -26 -66 -10 -30 -31 -80 -47 -111 -15 -31 -28 -64 -28 -73 0 -9 -3 -16 -8 -16 -4 0 -18 -24 -31 -52 -12 -29 -27 -60 -32 -68 -5 -8 -13 -24 -18 -35 -5 -11 -21 -37 -35 -58 -14 -21 -26 -42 -26 -47 0 -5 -14 -19 -30 -32 -21 -17 -29 -29 -24 -41 3 -9 10 -17 15 -17 5 0 9 -9 9 -20 0 -11 4 -20 9 -20 24 0 80 33 117 68 l40 39 69 -8 c55 -7 74 -6 92 6 12 8 36 15 53 15 18 0 39 9 52 22 20 20 31 22 106 19 79 -3 84 -2 78 16 -4 13 2 29 18 46 24 26 24 26 29 325 5 291 4 299 -14 295 -18 -5 -19 -19 -19 -294 0 -290 -3 -315 -36 -288 -12 10 -13 49 -8 270 l7 258 -26 12 c-22 10 -31 9 -52 -5 -30 -20 -36 -69 -7 -64 15 3 17 -6 14 -87 -2 -49 -8 -128 -13 -175 -5 -47 -9 -104 -9 -127 1 -35 -4 -44 -29 -62 -16 -12 -32 -21 -36 -21 -3 0 -30 -11 -58 -24 -58 -27 -117 -38 -136 -26 -17 10 -5 86 15 94 8 3 14 17 14 31 0 14 18 63 40 109 22 46 40 90 40 97 0 8 9 32 20 54 11 22 20 46 20 55 0 9 6 24 13 35 7 11 26 54 41 95 16 41 32 79 37 84 5 5 19 2 33 -8 35 -22 83 -21 96 3 14 27 13 31 -10 31 -13 0 -20 7 -20 20 0 11 -9 28 -20 37 -29 25 -25 54 15 97 20 22 37 53 41 74 3 21 8 45 11 55 2 9 0 17 -5 17 -5 0 -12 -14 -16 -31 -3 -18 -11 -29 -18 -27 -10 4 -13 90 -13 394 l0 389 25 5 c32 6 70 32 70 46 0 7 -10 15 -22 18 -22 6 -22 7 -6 20 31 23 36 101 29 446 -6 330 -7 335 -30 367 -42 57 -90 67 -282 59 -112 -4 -170 -3 -174 4 -8 13 -17 12 -84 -6z m455 -50 c10 -4 29 -16 42 -27 l22 -20 0 -371 -1 -371 -32 -20 c-56 -35 -58 -47 -56 -300 2 -291 5 -264 -33 -262 -18 0 -40 -2 -48 -6 -30 -14 -50 42 -50 140 -1 50 -7 105 -15 128 -8 22 -15 53 -15 68 0 15 -7 44 -15 64 -8 19 -15 48 -15 63 0 15 -7 33 -15 40 -8 7 -15 22 -15 34 0 12 -13 49 -30 81 -16 32 -30 64 -30 70 0 14 -56 122 -75 145 -6 8 -15 22 -19 30 -3 8 -14 27 -24 41 -9 15 -32 52 -50 83 -69 116 -222 293 -302 349 -12 9 -20 22 -17 29 4 12 65 14 337 15 182 1 334 4 337 7 7 7 91 0 119 -10z m-26 -1490 c0 -27 -4 -43 -10 -39 -17 11 -11 85 7 85 2 0 3 -21 3 -46z m-4 -421 c-11 -11 -19 6 -11 24 8 17 8 17 12 0 3 -10 2 -21 -1 -24z"/> <path d="M6333 4695 c-3 -9 -3 -18 0 -21 9 -9 27 6 27 22 0 19 -19 18 -27 -1z"/> <path d="M2157 5844 c-15 -3 -39 -16 -54 -30 -24 -22 -27 -34 -34 -122 -4 -53 -5 -371 -2 -707 3 -335 6 -855 8 -1155 2 -524 8 -655 30 -655 7 0 11 390 12 1145 1 630 5 1209 9 1288 5 127 9 146 28 167 l21 24 328 3 c183 2 327 -1 327 -6 0 -5 -45 -54 -99 -110 -55 -55 -110 -114 -122 -130 -12 -16 -35 -42 -51 -60 -15 -17 -28 -34 -28 -39 0 -5 -13 -26 -28 -46 -16 -20 -32 -43 -35 -51 -4 -8 -16 -28 -27 -45 -29 -44 -90 -171 -135 -280 -9 -22 -22 -53 -30 -70 -38 -88 -45 -108 -45 -138 0 -18 -7 -41 -15 -51 -8 -11 -15 -30 -15 -42 0 -13 -7 -48 -15 -79 -22 -85 -28 -307 -15 -530 22 -371 20 -353 41 -358 16 -4 19 -15 19 -60 0 -31 5 -59 10 -62 12 -8 13 -105 1 -105 -5 0 -9 10 -8 23 1 41 -36 170 -44 154 -11 -18 -27 -388 -34 -737 -2 -140 -7 -283 -11 -317 -6 -61 -6 -62 24 -77 26 -13 36 -14 59 -4 42 18 720 23 787 6 27 -7 51 -18 53 -24 6 -19 -79 -24 -433 -24 -319 0 -394 -6 -332 -26 13 -4 204 -8 424 -9 312 -1 405 -4 418 -14 18 -16 37 -6 29 15 -3 9 3 21 15 30 12 8 19 21 16 28 -6 16 -47 36 -74 36 -21 0 -123 58 -155 87 -11 10 -47 35 -80 56 -69 42 -153 119 -210 192 -22 28 -42 52 -45 55 -3 3 -16 29 -29 58 -29 69 -46 96 -104 168 -26 32 -50 70 -54 84 -3 14 -10 30 -15 37 -16 20 -48 86 -48 99 0 6 -7 17 -15 24 -8 7 -15 23 -15 35 0 12 -7 28 -15 35 -8 7 -15 22 -15 34 0 12 -5 27 -11 33 -15 15 -30 79 -33 138 -1 28 -10 66 -21 85 -14 26 -21 66 -26 150 -4 63 -13 167 -19 230 -9 87 -9 142 0 230 7 63 15 151 19 196 3 45 12 88 19 96 7 9 15 40 19 69 3 30 19 82 34 116 16 34 29 71 29 81 0 11 7 25 15 32 8 7 15 20 15 29 0 10 11 39 24 67 13 27 36 76 51 108 29 61 132 218 194 296 20 25 80 90 134 145 114 115 122 127 107 155 -10 19 -21 20 -159 20 -81 0 -235 2 -342 4 -107 3 -206 2 -222 0z m125 -2321 c2 -10 0 -30 -5 -45 -10 -30 15 -85 41 -90 13 -3 61 -117 62 -147 0 -7 13 -28 29 -47 17 -18 34 -49 40 -68 5 -20 23 -56 40 -81 17 -25 31 -48 31 -50 0 -15 110 -162 144 -192 26 -23 46 -51 50 -69 6 -28 4 -32 -20 -38 -14 -4 -86 -6 -158 -5 -72 0 -138 -2 -147 -6 -23 -9 -96 12 -119 35 -17 17 -19 36 -19 187 -1 92 -2 184 -3 203 0 19 0 69 2 110 2 54 -2 84 -13 106 -12 23 -14 44 -8 92 4 34 13 68 19 74 7 7 12 20 12 30 0 23 17 23 22 1z"/> <path d="M7596 5347 c-22 -12 -46 -28 -54 -34 -7 -7 -19 -13 -26 -13 -14 0 -50 -16 -139 -61 -32 -16 -65 -29 -73 -29 -9 0 -22 -7 -30 -15 -9 -8 -23 -15 -33 -15 -10 0 -28 -11 -41 -25 l-23 -25 1 -405 c1 -223 4 -410 7 -414 2 -5 5 -60 6 -122 1 -138 6 -164 25 -148 8 7 18 9 22 5 4 -4 8 -62 8 -129 2 -104 4 -123 20 -134 10 -7 23 -13 30 -13 7 0 50 -18 96 -39 46 -22 97 -43 113 -47 17 -4 49 -20 73 -35 57 -39 90 -46 99 -24 3 10 -3 57 -15 105 -17 68 -22 118 -23 231 0 79 -5 180 -11 224 -13 103 -14 149 -4 207 7 40 6 47 -11 52 -10 3 -99 2 -198 -3 -99 -4 -182 -4 -185 1 -3 4 -5 157 -4 338 3 325 6 360 35 360 8 0 69 26 174 75 17 8 52 24 80 36 27 12 66 32 87 45 21 13 43 24 51 24 10 0 13 -105 13 -547 0 -540 8 -813 24 -796 12 12 31 263 29 383 -3 192 1 854 6 900 5 49 3 58 -20 83 -31 32 -57 34 -109 4z m-47 -994 l32 -28 -10 -63 c-9 -56 -8 -70 11 -119 20 -55 20 -57 2 -70 -34 -25 -263 8 -305 44 -8 7 -25 13 -37 13 -22 0 -27 15 -15 45 5 16 8 15 22 -4 15 -19 19 -20 36 -7 17 12 19 25 17 100 -1 61 2 88 11 91 6 3 50 9 97 14 47 4 90 9 95 10 6 0 26 -11 44 -26z m-65 -352 c68 -11 77 -28 74 -126 l-3 -80 -40 -2 c-60 -3 -154 50 -178 100 -14 31 -16 45 -7 77 11 40 11 40 58 39 26 0 69 -4 96 -8z"/> <path d="M3656 5222 c-76 -44 -90 -93 -88 -317 3 -336 2 -753 -3 -1081 -5 -298 -4 -343 10 -354 8 -7 15 -23 15 -35 0 -14 16 -37 43 -60 40 -36 44 -37 97 -32 30 4 56 11 58 17 2 6 14 16 26 21 11 5 35 18 51 29 17 11 37 22 45 26 8 3 22 10 30 15 8 5 23 12 33 15 9 4 17 10 17 14 0 5 9 12 20 15 26 8 124 74 128 86 2 5 12 9 22 9 9 0 23 7 30 15 7 8 17 15 22 15 6 0 30 14 55 30 24 17 51 30 59 30 7 0 14 4 14 10 0 5 11 12 25 16 13 3 29 12 36 20 6 8 20 14 30 14 11 0 19 4 19 10 0 5 11 12 25 16 14 3 25 10 25 14 0 5 10 12 23 16 12 4 38 20 58 35 20 16 44 29 53 29 9 0 16 4 16 9 0 5 10 13 23 17 12 4 40 19 62 33 61 39 78 49 102 60 11 5 24 15 28 20 3 6 14 11 25 11 10 0 20 6 23 13 2 7 22 21 43 32 22 11 43 26 47 33 4 6 16 12 25 12 10 0 33 13 52 30 19 16 40 29 47 30 12 0 47 27 94 73 24 23 29 36 29 76 0 32 -6 54 -17 67 -26 28 -99 84 -111 84 -5 0 -15 7 -22 15 -7 8 -23 15 -37 15 -13 0 -26 7 -29 15 -4 8 -12 15 -19 15 -6 0 -31 14 -53 30 -23 17 -48 30 -56 30 -8 0 -19 6 -23 13 -4 6 -30 23 -58 36 -27 14 -52 27 -55 30 -3 3 -26 16 -52 29 -27 13 -48 28 -48 33 0 5 -5 9 -11 9 -7 0 -34 14 -61 30 -26 17 -55 30 -62 30 -8 0 -21 6 -28 13 -13 11 -37 25 -121 69 -20 11 -40 24 -43 29 -3 5 -11 9 -19 9 -8 0 -33 12 -57 28 -75 47 -82 52 -108 63 -13 5 -27 13 -30 17 -3 4 -16 13 -30 19 -45 22 -113 62 -119 70 -3 4 -26 18 -51 31 -25 13 -64 34 -88 47 -23 13 -56 26 -72 30 -17 4 -30 11 -30 16 0 14 -52 9 -84 -9z m146 -85 c75 -40 82 -43 180 -101 43 -25 81 -46 86 -46 4 0 23 -11 43 -24 45 -31 115 -69 309 -169 85 -43 179 -93 209 -109 30 -17 104 -56 165 -88 142 -73 176 -93 176 -102 0 -5 9 -8 19 -8 11 0 22 -4 25 -9 3 -4 31 -21 61 -36 31 -16 73 -44 95 -63 34 -28 40 -40 40 -72 0 -33 -6 -44 -42 -75 -24 -20 -85 -62 -136 -93 -51 -32 -105 -65 -120 -74 -15 -10 -34 -21 -42 -25 -8 -3 -17 -9 -20 -13 -9 -10 -64 -44 -105 -64 -22 -11 -42 -23 -45 -27 -3 -4 -17 -13 -30 -19 -14 -5 -38 -19 -55 -30 -16 -11 -39 -24 -50 -30 -11 -6 -33 -19 -50 -30 -16 -11 -39 -24 -50 -30 -11 -6 -47 -26 -80 -45 -33 -19 -70 -39 -82 -44 -13 -6 -23 -15 -23 -21 0 -5 -9 -10 -19 -10 -11 0 -23 -5 -26 -11 -4 -5 -17 -15 -28 -20 -12 -5 -35 -18 -52 -29 -16 -11 -39 -24 -50 -30 -27 -15 -49 -28 -119 -73 -32 -21 -68 -43 -80 -48 -12 -5 -28 -13 -36 -18 -133 -82 -170 -89 -219 -42 -17 16 -33 46 -38 68 -13 60 -9 516 5 643 9 78 12 244 11 530 -2 449 -1 467 52 504 33 23 49 20 121 -17z"/> <path d="M4661 4556 c-24 -26 -330 -213 -414 -253 -26 -13 -69 -38 -95 -56 -113 -80 -171 -117 -237 -152 -38 -21 -87 -49 -109 -62 -21 -14 -58 -33 -82 -43 -24 -11 -44 -23 -45 -27 0 -4 -2 -116 -4 -248 -4 -204 -2 -243 11 -263 19 -29 50 -24 103 17 36 27 122 80 151 92 8 4 124 72 258 153 134 80 246 146 249 146 3 0 56 30 117 67 61 37 156 94 211 127 55 33 108 66 117 74 9 8 75 49 145 91 94 56 128 81 128 95 0 15 -25 33 -100 71 -55 27 -155 83 -222 123 -67 39 -130 72 -141 72 -10 0 -29 -11 -41 -24z m136 -80 c16 -13 47 -34 71 -46 23 -12 45 -26 48 -31 3 -6 23 -21 45 -35 51 -32 52 -60 2 -101 -21 -16 -54 -38 -73 -48 -19 -9 -44 -25 -55 -35 -21 -19 -121 -75 -217 -123 -32 -15 -63 -37 -68 -48 -6 -10 -21 -19 -33 -20 -12 0 -44 -13 -72 -30 -27 -16 -61 -34 -75 -39 -14 -6 -29 -17 -35 -24 -11 -14 -190 -116 -203 -116 -5 0 -19 -11 -32 -25 -13 -14 -35 -25 -49 -25 -15 0 -31 -8 -38 -18 -12 -21 -90 -60 -171 -86 -77 -26 -82 -19 -82 118 0 137 14 190 57 214 17 9 53 29 80 44 27 14 55 34 63 43 8 9 34 27 59 40 25 12 73 43 107 68 33 24 72 50 85 57 13 7 37 24 52 36 16 13 35 24 43 24 9 0 32 13 52 29 20 16 48 32 60 36 13 4 31 14 40 22 25 21 120 83 129 83 5 0 28 14 52 30 57 39 116 41 158 6z"/> <path d="M6936 5047 c-22 -12 -46 -28 -54 -34 -7 -7 -22 -13 -33 -13 -10 0 -19 -4 -19 -8 0 -5 -25 -19 -55 -33 -30 -13 -55 -27 -55 -30 0 -4 -12 -10 -26 -13 -50 -13 -103 -106 -59 -106 19 0 19 -27 0 -37 -12 -7 -15 -46 -17 -233 -2 -254 4 -314 32 -305 13 4 22 -4 35 -31 14 -29 16 -51 10 -109 l-6 -73 58 -17 c32 -10 87 -32 123 -48 36 -17 81 -33 100 -36 29 -5 35 -11 35 -31 0 -21 -5 -26 -34 -28 -23 -2 -37 2 -43 12 -5 10 -22 16 -42 16 -19 0 -39 7 -46 15 -7 8 -23 15 -35 15 -21 0 -58 15 -105 42 -8 5 -22 11 -32 14 -13 5 -18 25 -23 102 -9 139 -10 140 -19 15 -4 -62 -5 -117 -2 -122 3 -5 27 -19 54 -31 26 -11 60 -28 75 -35 16 -8 40 -15 53 -15 14 0 27 -7 30 -15 4 -10 20 -15 50 -15 24 0 44 -5 44 -10 0 -16 47 -30 80 -24 26 6 30 11 30 40 0 18 -5 45 -11 60 -5 16 -14 63 -20 106 -9 73 -8 80 12 108 21 28 21 31 6 48 -15 16 -16 43 -12 233 3 117 8 246 11 284 10 124 9 309 -1 330 -20 41 -34 43 -89 12z m41 -317 c-2 -154 -6 -283 -10 -286 -3 -3 -64 -5 -135 -5 -147 2 -160 -3 -140 -57 14 -36 23 -39 64 -17 30 16 102 13 153 -6 15 -6 28 -6 37 2 10 8 14 6 18 -13 11 -55 16 -127 8 -132 -11 -7 -221 37 -250 53 -12 7 -31 9 -42 6 -10 -3 -21 -2 -24 3 -3 5 -1 114 5 243 6 129 11 257 12 284 l2 50 70 36 c137 70 170 88 190 103 46 35 46 34 42 -264z m-87 -610 c25 -46 -7 -55 -55 -15 -29 24 -29 25 -11 40 22 16 49 6 66 -25z"/> <path d="M6551 4826 c-11 -13 -11 -17 3 -22 26 -10 38 -1 23 20 -12 16 -14 16 -26 2z"/> <path d="M6500 4298 c0 -48 13 -80 23 -55 8 20 -4 97 -14 97 -5 0 -9 -19 -9 -42z"/> <path d="M7196 3885 c-4 -44 -9 -92 -11 -107 -4 -22 3 -33 39 -63 28 -23 53 -35 73 -35 18 0 33 -6 37 -15 3 -8 17 -15 31 -15 14 0 25 -4 25 -10 0 -12 77 -50 102 -50 10 0 21 -7 24 -15 4 -8 17 -15 30 -15 12 0 27 -6 31 -13 22 -37 120 -60 142 -34 27 34 25 147 -3 147 -18 0 -26 -22 -26 -70 0 -21 -4 -41 -8 -44 -11 -6 -79 17 -94 32 -7 7 -18 12 -26 12 -8 0 -27 7 -43 15 -16 8 -42 22 -58 30 -16 8 -34 15 -41 15 -6 0 -18 7 -26 15 -9 8 -26 15 -40 15 -13 0 -24 4 -24 10 0 5 -12 13 -27 16 -16 4 -40 16 -55 28 -26 18 -28 25 -29 95 -1 42 -5 90 -8 106 -6 24 -9 13 -15 -50z"/> <path d="M1843 3301 c-12 -10 -23 -31 -25 -47 -2 -21 -22 -44 -78 -91 -64 -54 -78 -71 -96 -120 -11 -32 -26 -68 -32 -79 -8 -16 -9 -38 0 -85 9 -54 17 -68 54 -105 53 -51 124 -94 156 -94 33 0 48 18 48 59 1 20 8 54 16 76 39 105 46 148 39 255 -4 58 -7 130 -8 161 -3 82 -29 107 -74 70z m-76 -265 c29 8 53 -30 53 -82 0 -52 -20 -62 -65 -34 -37 23 -45 38 -45 84 0 38 8 50 25 36 6 -5 20 -7 32 -4z"/> <path d="M7353 3223 c-36 -14 -3 -23 81 -23 99 0 138 -15 64 -24 -24 -3 -56 -7 -73 -9 -16 -2 -97 -18 -180 -35 -82 -17 -184 -36 -225 -42 -109 -17 -215 -41 -295 -69 -16 -5 -57 -17 -90 -27 -33 -9 -75 -23 -93 -30 -18 -8 -44 -14 -57 -14 -27 0 -43 -19 -26 -29 12 -8 103 -6 131 2 8 2 31 10 50 17 19 7 47 14 61 15 14 1 32 6 40 11 8 4 32 10 54 11 74 4 250 23 318 33 37 5 97 10 133 10 39 0 77 6 95 16 17 8 47 14 67 12 29 -2 37 -8 42 -28 6 -22 11 -25 46 -23 21 2 45 5 52 8 19 7 52 85 52 123 0 26 5 35 21 39 15 4 19 12 17 32 l-3 26 -135 2 c-74 0 -141 -1 -147 -4z"/> <path d="M7124 3185 c-5 -12 -26 -15 -104 -15 -78 0 -99 -3 -104 -15 -4 -11 -21 -15 -63 -15 -32 -1 -69 -7 -83 -15 -14 -8 -35 -14 -47 -15 -13 0 -23 -6 -23 -14 0 -22 13 -26 56 -15 21 6 64 16 94 24 30 7 71 18 90 24 19 6 58 11 87 11 28 0 64 5 80 11 15 6 68 14 117 18 58 4 91 10 94 19 6 20 -187 17 -194 -3z"/> <path d="M6602 3083 c-13 -2 -26 -11 -29 -19 -3 -10 -22 -14 -62 -14 -33 -1 -64 -7 -75 -15 -11 -8 -34 -15 -50 -15 -17 0 -40 -7 -50 -15 -11 -8 -34 -15 -52 -15 -17 0 -37 -7 -44 -15 -7 -9 -29 -15 -55 -15 -26 0 -48 -6 -55 -15 -7 -8 -27 -15 -45 -15 -18 0 -46 -7 -61 -15 -16 -8 -37 -15 -46 -15 -9 0 -19 -4 -22 -9 -3 -5 -30 -12 -60 -15 -33 -5 -57 -13 -60 -22 -4 -10 -22 -14 -59 -14 -30 0 -56 -3 -60 -6 -10 -10 -140 -54 -160 -54 -10 0 -25 -7 -33 -15 -9 -8 -32 -15 -52 -15 -20 0 -46 -7 -56 -15 -11 -8 -34 -15 -52 -15 -17 0 -45 -7 -60 -15 -16 -8 -39 -15 -51 -15 -12 0 -25 -4 -28 -10 -3 -5 -29 -12 -56 -16 -28 -4 -53 -13 -56 -20 -4 -10 -24 -14 -64 -14 -33 0 -67 -4 -77 -9 -32 -17 -128 -41 -182 -46 -29 -3 -58 -9 -65 -15 -6 -5 -45 -14 -86 -20 -105 -13 -201 -31 -224 -40 -11 -5 -38 -12 -60 -15 -22 -4 -45 -11 -51 -16 -6 -5 -49 -12 -95 -16 -46 -3 -93 -12 -104 -18 -11 -7 -71 -16 -133 -19 -63 -4 -125 -11 -139 -17 -13 -5 -47 -9 -74 -9 -30 0 -51 -5 -54 -12 -4 -10 -46 -13 -155 -14 -123 -1 -154 -5 -168 -18 -15 -13 -44 -16 -158 -16 -541 -3 -723 -6 -729 -12 -15 -15 76 -18 470 -15 390 3 701 17 727 33 7 4 69 14 138 21 218 22 303 33 339 43 20 5 53 10 73 10 20 0 49 5 65 11 34 14 200 48 380 78 28 5 57 12 63 16 6 4 40 11 76 16 37 5 71 13 78 17 6 4 38 12 71 18 33 7 87 19 120 28 33 9 77 21 98 27 21 5 45 13 55 18 16 9 35 15 154 44 25 7 50 15 54 20 4 4 17 7 28 7 12 0 34 7 50 15 15 8 37 15 48 15 11 0 34 6 51 13 18 8 59 22 92 31 33 9 81 24 106 32 26 7 55 14 65 14 11 0 31 6 46 14 15 8 41 17 59 21 19 4 40 11 49 16 20 10 150 49 166 49 6 0 25 7 40 15 16 8 41 15 55 15 15 0 40 7 55 15 16 8 38 15 49 15 11 1 31 7 45 15 14 8 39 14 56 15 18 0 45 7 60 15 16 8 46 15 66 15 33 0 57 14 46 26 -8 7 -63 12 -86 7z"/> <path d="M7346 3012 c-3 -5 -35 -12 -71 -14 -36 -3 -72 -11 -80 -18 -9 -7 -48 -15 -88 -17 -39 -3 -91 -11 -115 -19 -23 -8 -61 -14 -83 -14 -26 0 -42 -5 -45 -15 -4 -8 -17 -15 -30 -15 -37 0 -64 -34 -64 -79 0 -22 4 -42 9 -45 4 -3 11 -29 15 -58 4 -28 12 -60 17 -70 7 -12 6 -25 -3 -40 -11 -20 -13 -21 -16 -5 -2 12 -9 16 -22 12 -25 -8 -60 11 -60 33 -1 21 -38 67 -47 58 -4 -3 5 -32 20 -64 14 -31 36 -90 48 -131 12 -40 28 -85 35 -100 8 -14 14 -33 14 -41 0 -8 12 -46 25 -85 33 -92 32 -128 -1 -154 -15 -12 -37 -21 -50 -21 -12 0 -25 -4 -28 -9 -4 -5 -24 -12 -46 -16 -22 -4 -42 -10 -45 -15 -3 -5 -24 -11 -48 -15 -23 -4 -46 -11 -52 -15 -5 -4 -27 -11 -49 -14 -21 -4 -52 -13 -70 -21 -17 -7 -60 -21 -95 -31 -34 -10 -65 -24 -68 -31 -3 -7 -15 -13 -27 -13 -44 0 -48 -16 -7 -30 43 -14 158 -8 206 10 14 6 43 10 63 10 36 0 98 18 157 45 17 7 89 27 160 44 72 17 150 37 175 45 90 28 157 45 225 56 39 7 90 16 115 22 105 22 128 26 177 32 48 6 51 5 46 -14 -6 -21 -23 -28 -83 -32 -23 -2 -35 -8 -35 -18 0 -20 95 -15 111 6 6 8 28 14 48 14 20 0 51 7 68 16 27 14 29 19 23 47 -10 45 -6 129 7 145 8 9 7 19 -2 37 -16 29 -64 35 -78 9 -6 -11 -25 -15 -75 -15 -52 0 -67 -4 -67 -15 0 -10 12 -14 43 -14 47 0 83 -15 57 -24 -93 -29 -234 -62 -305 -70 -27 -4 -68 -13 -90 -21 -59 -21 -165 -18 -165 5 0 13 65 31 96 28 15 -2 29 3 31 10 4 9 -5 11 -36 6 -38 -6 -41 -4 -53 22 -17 40 -16 39 -51 39 l-32 0 0 61 c0 33 -5 67 -11 75 -20 27 -44 87 -44 112 0 14 -7 28 -16 31 -13 5 -15 15 -11 42 5 27 1 40 -14 55 -22 22 -25 45 -6 52 9 3 17 30 21 68 3 35 12 66 19 71 6 4 28 5 47 1 66 -13 95 -10 92 10 -3 16 3 19 40 16 57 -4 124 9 139 27 7 9 31 14 68 14 32 0 65 6 77 14 11 8 30 16 42 18 13 1 24 8 25 13 3 13 -69 19 -77 7z"/> <path d="M1400 2923 c-6 -15 -16 -39 -23 -52 -13 -27 -13 -121 1 -130 5 -3 12 -23 16 -43 4 -21 10 -38 15 -38 4 0 15 -18 25 -40 17 -39 17 -40 -3 -62 -28 -29 -28 -88 -1 -113 11 -10 24 -32 28 -49 6 -21 15 -32 29 -34 12 -2 27 -10 33 -18 17 -19 69 -18 92 3 14 13 21 14 30 5 9 -9 7 -12 -10 -12 -27 0 -31 -38 -4 -46 9 -3 25 -10 34 -15 10 -5 33 -9 52 -9 18 0 39 -7 46 -15 7 -8 23 -15 36 -15 13 0 27 -8 33 -17 7 -13 21 -17 54 -15 32 1 47 -3 51 -13 4 -11 24 -15 81 -15 62 0 75 -3 75 -16 0 -9 7 -14 18 -12 9 2 16 11 16 21 -2 21 38 23 55 3 10 -12 8 -17 -8 -26 -37 -19 -27 -114 20 -203 8 -14 6 -22 -5 -30 -13 -10 -14 -19 -7 -45 6 -19 8 -61 5 -95 -3 -34 -1 -68 4 -76 19 -27 32 1 33 72 l2 72 10 -59 c7 -43 7 -68 -2 -91 -13 -37 -15 -92 -2 -99 5 -3 12 4 15 17 7 21 7 21 16 2 14 -33 11 -104 -6 -130 -14 -21 -24 -25 -68 -25 -51 0 -117 17 -183 46 -17 8 -37 14 -45 14 -18 0 -174 68 -256 111 -76 41 -182 124 -182 144 0 8 -4 15 -10 15 -5 0 -10 7 -10 15 0 8 3 15 8 15 7 0 59 -42 93 -75 15 -15 39 -20 39 -9 0 3 -22 26 -48 52 -27 26 -55 56 -63 67 -8 11 -24 29 -37 39 -21 18 -23 18 -42 1 -24 -22 -26 -43 -4 -52 14 -5 16 -18 10 -89 -9 -110 -2 -146 34 -167 15 -9 38 -28 51 -42 28 -29 42 -31 59 -10 7 8 16 12 21 9 14 -8 10 -24 -6 -24 -22 0 -18 -21 5 -27 11 -3 20 -9 20 -14 0 -5 9 -9 20 -9 11 0 20 5 20 10 0 6 -9 10 -20 10 -11 0 -20 7 -20 15 0 20 12 19 57 -4 86 -44 214 -101 227 -101 8 0 27 -6 43 -14 46 -24 254 -76 301 -76 11 0 36 -7 55 -15 20 -8 53 -15 72 -15 20 0 44 -4 53 -9 33 -17 257 -42 422 -47 191 -6 530 10 675 30 55 8 101 15 103 15 1 1 2 8 2 16 0 20 51 45 92 45 18 0 40 5 48 10 43 29 -73 34 -293 14 -55 -5 -59 -4 -87 27 -17 17 -30 39 -30 48 0 9 -8 28 -17 41 -10 14 -21 50 -25 80 -10 76 -32 183 -40 195 -3 6 -9 33 -13 60 -4 28 -13 57 -20 65 -8 8 -15 33 -17 54 -2 23 -9 41 -17 44 -11 4 -13 -4 -8 -37 4 -33 2 -43 -13 -51 -27 -14 -30 -13 -30 13 0 33 -11 67 -21 67 -5 0 -9 -31 -9 -70 0 -53 -3 -70 -14 -70 -10 0 -15 27 -21 110 -6 102 -9 112 -35 140 l-28 30 -179 0 c-197 0 -261 14 -117 25 49 3 96 9 104 13 8 3 26 7 40 7 14 1 60 10 102 19 60 14 90 16 131 9 43 -8 65 -6 108 9 30 9 64 18 75 18 17 0 57 29 43 30 -2 1 -141 2 -309 4 -289 3 -521 19 -690 47 -36 6 -96 14 -135 18 -38 4 -80 13 -92 19 -12 7 -37 12 -55 12 -18 0 -46 7 -62 15 -15 8 -36 15 -46 15 -23 0 -142 30 -155 39 -5 4 -37 18 -70 31 -126 50 -257 148 -285 212 -6 13 -14 30 -19 38 -18 30 -32 96 -29 135 4 40 4 40 12 10 17 -65 70 -152 119 -197 93 -85 128 -78 44 9 -71 74 -97 108 -97 125 0 8 -6 20 -12 26 -7 7 -15 45 -18 85 -5 65 -7 72 -27 75 -17 3 -25 -3 -33 -25z m485 -663 c17 -7 14 -9 -13 -9 -20 -1 -31 3 -27 9 7 12 13 12 40 0z m504 -98 c7 -14 18 -17 45 -14 22 3 36 0 36 -7 0 -6 -14 -11 -30 -11 -22 0 -33 -6 -41 -23 -9 -20 -7 -28 13 -50 l24 -26 32 21 c18 11 32 24 32 29 0 5 9 9 20 9 24 0 26 -16 3 -28 -14 -8 -13 -12 12 -24 25 -14 30 -13 46 3 24 24 42 23 153 -1 108 -24 130 -25 146 -5 15 18 69 20 105 3 18 -8 29 -8 36 -1 20 20 46 -19 41 -59 -2 -20 1 -39 7 -42 6 -4 11 -31 11 -61 0 -30 4 -56 9 -59 5 -3 12 -44 16 -91 4 -55 12 -88 20 -93 16 -8 25 -188 11 -210 -4 -7 -1 -12 8 -12 24 0 30 20 36 120 3 52 8 88 11 80 55 -151 56 -155 24 -199 -44 -65 -54 -66 -349 -52 -299 14 -398 29 -426 63 -20 24 -27 96 -11 114 16 17 20 152 5 171 -13 17 -13 17 -15 -2 -1 -11 -1 -30 0 -41 1 -12 -3 -32 -8 -45 l-10 -24 -1 25 c-6 147 0 209 15 161 9 -29 25 -26 25 4 0 16 -6 25 -15 25 -12 0 -15 17 -15 91 0 68 -3 90 -12 86 -7 -2 -12 -15 -11 -28 1 -13 0 -40 -3 -59 -5 -29 -7 -32 -16 -16 -10 17 -7 77 7 144 7 29 5 32 -18 32 -14 0 -29 5 -32 10 -3 6 -15 10 -26 10 -20 0 -21 1 -23 53 -2 39 7 47 61 47 31 0 45 -5 52 -18z m781 -458 c0 -41 -4 -63 -10 -59 -5 3 -10 33 -10 66 0 33 4 59 10 59 6 0 10 -29 10 -66z m145 -330 c28 -18 34 -59 9 -68 -26 -10 -69 -7 -88 7 -17 12 -16 15 9 45 31 37 37 38 70 16z"/> <path d="M2327 2113 c-12 -11 -8 -23 8 -23 8 0 15 7 15 15 0 16 -12 20 -23 8z"/> <path d="M2515 1459 c-10 -15 -5 -17 45 -21 26 -2 45 1 45 7 0 6 -14 10 -31 11 -17 1 -36 4 -42 8 -6 3 -14 1 -17 -5z"/> <path d="M2705 1421 l-50 -6 70 -8 c104 -10 353 -9 360 3 3 6 5 10 3 11 -18 5 -345 5 -383 0z"/> <path d="M6420 2805 c-25 -7 -81 -23 -125 -35 -44 -13 -84 -26 -90 -30 -5 -4 -30 -11 -55 -15 -109 -17 -196 -57 -203 -94 -6 -29 10 -121 24 -136 5 -5 9 -18 9 -30 0 -11 7 -33 15 -49 8 -15 15 -39 15 -52 0 -14 7 -41 15 -61 8 -19 15 -45 15 -57 0 -12 7 -31 15 -42 8 -10 15 -30 15 -44 0 -14 9 -43 20 -65 11 -22 19 -43 20 -47 0 -5 10 -18 22 -30 18 -18 32 -22 77 -20 30 1 59 7 66 12 6 5 33 12 60 17 52 9 69 27 34 36 -29 8 -76 -2 -90 -19 -13 -16 -66 -18 -104 -4 -25 9 -27 14 -20 46 5 30 3 36 -14 41 -16 4 -21 13 -21 42 0 20 -6 45 -14 56 -7 11 -16 38 -20 59 -4 22 -14 49 -22 60 -8 11 -14 40 -14 63 0 24 -4 43 -10 43 -5 0 -10 16 -10 36 0 23 -6 41 -17 49 -14 11 -15 20 -7 61 l9 49 52 2 c28 1 61 7 73 13 12 6 34 8 50 5 25 -6 32 -3 41 19 10 21 19 26 48 26 20 0 47 7 60 16 16 12 34 14 61 10 33 -5 40 -3 45 14 3 11 12 20 18 21 7 0 31 2 55 4 42 3 42 3 42 -30 0 -19 4 -36 9 -39 5 -4 12 -24 16 -45 4 -22 13 -45 21 -52 8 -6 14 -25 14 -41 0 -16 6 -31 15 -34 9 -4 15 -19 15 -39 0 -18 7 -38 15 -45 8 -7 15 -20 15 -29 0 -9 6 -26 14 -37 8 -11 16 -33 18 -49 1 -16 9 -30 16 -33 18 -6 16 72 -3 88 -8 7 -15 21 -15 30 0 10 -6 31 -14 47 -26 51 -46 101 -46 116 0 8 -7 28 -15 43 -8 16 -15 38 -15 50 0 20 -16 62 -45 114 -11 21 -22 25 -62 27 -26 1 -68 -4 -93 -12z"/> <path d="M5606 2565 c-15 -8 -35 -15 -44 -15 -9 0 -43 -9 -76 -19 -34 -11 -79 -24 -101 -29 -22 -6 -71 -20 -110 -31 -38 -12 -77 -21 -86 -21 -27 0 -79 -30 -96 -56 -16 -25 -13 -105 6 -128 5 -6 13 -31 19 -56 6 -25 18 -70 27 -100 26 -89 45 -161 56 -215 6 -27 15 -54 20 -59 5 -6 9 -17 9 -25 0 -25 43 -80 68 -86 13 -3 37 1 53 9 17 8 50 18 75 22 24 3 47 10 50 15 3 5 17 9 32 9 15 0 39 6 53 14 14 7 51 17 82 20 31 4 59 11 62 16 3 4 29 11 58 15 28 4 57 11 62 15 6 4 24 11 41 14 51 11 77 42 70 85 -3 20 -11 40 -18 46 -7 5 -14 30 -16 55 -1 25 -6 54 -11 65 -10 23 -28 90 -42 154 -5 24 -13 49 -18 55 -5 6 -12 30 -16 53 -4 24 -10 45 -15 48 -4 3 -11 21 -15 41 -6 37 -30 82 -50 96 -18 13 -99 8 -129 -7z m125 -73 c9 -20 25 -64 34 -97 10 -33 24 -72 31 -87 8 -14 14 -42 14 -61 0 -19 7 -40 15 -47 8 -7 15 -29 15 -48 0 -42 28 -122 47 -137 10 -7 11 -24 7 -57 -6 -45 -9 -48 -36 -48 -16 0 -45 -7 -65 -15 -19 -8 -50 -15 -68 -15 -19 0 -35 -4 -37 -9 -1 -5 -29 -12 -62 -14 -32 -2 -62 -10 -66 -17 -4 -7 -32 -15 -61 -18 -30 -3 -64 -12 -77 -20 -12 -8 -47 -15 -77 -16 -61 -1 -75 9 -75 56 0 15 -4 29 -9 32 -4 3 -11 29 -15 58 -4 29 -12 56 -19 60 -6 3 -10 26 -9 51 2 34 -1 46 -14 51 -13 5 -15 15 -11 47 4 32 1 44 -14 57 -10 9 -19 29 -19 45 0 15 -7 30 -15 33 -22 9 -19 44 4 44 11 0 22 9 26 19 3 11 16 21 28 23 17 2 21 9 19 27 -2 23 -1 24 49 18 42 -5 49 -4 39 7 -17 21 2 28 59 20 43 -6 50 -4 60 15 9 16 21 21 55 21 31 0 46 5 50 16 4 11 17 15 48 12 34 -2 43 1 46 15 3 13 14 17 45 17 39 0 43 -3 58 -38z m-571 -122 c0 -5 -7 -10 -15 -10 -8 0 -15 5 -15 10 0 6 7 10 15 10 8 0 15 -4 15 -10z"/> <path d="M1820 2470 c0 -13 45 -24 66 -16 8 3 12 10 9 16 -8 13 -75 13 -75 0z"/> <path d="M2377 2354 c-16 -17 -5 -25 31 -22 20 2 37 8 37 13 0 12 -57 19 -68 9z"/> <path d="M4715 2328 c-35 -11 -145 -35 -230 -48 -33 -6 -71 -14 -85 -19 -14 -6 -49 -13 -77 -16 -29 -4 -55 -11 -59 -16 -3 -5 -13 -9 -23 -9 -10 0 -26 -9 -36 -20 -19 -21 -18 -53 10 -160 9 -36 20 -86 24 -112 4 -25 12 -52 18 -60 6 -7 13 -42 16 -77 3 -35 10 -68 16 -74 6 -6 11 -28 11 -49 0 -39 33 -114 60 -135 16 -14 102 -18 114 -5 4 4 40 12 79 19 40 6 106 18 147 27 41 9 112 21 158 26 46 5 91 14 102 20 10 5 27 10 38 10 30 0 62 42 62 83 0 20 -4 39 -10 42 -5 3 -10 16 -10 28 0 12 -6 34 -13 48 -8 14 -17 45 -21 70 -4 24 -11 58 -15 74 -5 17 -17 57 -26 90 -9 33 -21 74 -27 90 -5 17 -13 46 -18 65 -9 40 -38 102 -54 112 -16 11 -115 8 -151 -4z m137 -57 c10 -9 18 -29 18 -46 0 -17 9 -47 20 -68 11 -20 20 -54 20 -75 0 -21 5 -43 12 -50 6 -6 15 -30 19 -54 20 -106 33 -154 46 -161 7 -4 13 -25 13 -45 0 -21 5 -43 12 -50 17 -17 -18 -52 -53 -52 -15 0 -29 -4 -31 -9 -1 -5 -45 -12 -97 -14 -61 -4 -97 -10 -102 -18 -5 -8 -33 -14 -74 -16 -38 -1 -74 -8 -87 -17 -12 -9 -32 -13 -44 -10 -12 3 -36 -1 -52 -10 -17 -9 -45 -16 -61 -16 -25 0 -32 5 -37 28 -8 35 -35 114 -44 127 -4 6 -10 42 -12 81 -3 43 -12 81 -22 95 -10 14 -16 43 -16 76 0 28 -5 55 -11 59 -15 9 -4 106 17 146 l16 31 96 -6 c75 -5 92 -3 75 5 -13 6 -23 15 -23 20 0 14 73 9 90 -7 23 -20 72 -4 68 22 -2 14 5 19 37 21 22 1 49 7 60 12 52 23 121 23 147 1z"/> <path d="M4760 2261 c0 -18 18 -21 30 -6 10 13 9 15 -9 15 -11 0 -21 -4 -21 -9z"/> <path d="M7372 2324 c-22 -10 -2 -24 34 -24 24 0 34 4 32 13 -5 13 -44 19 -66 11z"/> <path d="M7285 2311 c-6 -6 -32 -11 -60 -13 -27 -2 -50 -7 -50 -13 0 -26 112 -14 147 15 l23 19 -25 1 c-15 0 -30 -4 -35 -9z"/> <path d="M6746 2237 c6 -49 5 -55 -15 -60 -23 -6 -29 -27 -7 -27 24 0 38 29 40 81 1 34 -3 53 -12 56 -9 4 -11 -8 -6 -50z"/> <path d="M3795 2160 c-44 -4 -96 -12 -115 -18 -19 -6 -89 -13 -155 -16 -141 -8 -231 -30 -239 -59 -3 -11 -2 -49 1 -84 5 -48 11 -66 25 -74 14 -8 16 -14 8 -29 -15 -27 -12 -73 5 -96 8 -11 15 -42 15 -74 0 -63 14 -95 30 -70 16 24 12 126 -5 140 -9 8 -15 30 -15 60 0 25 -3 50 -7 54 -4 3 -8 14 -10 24 -21 121 -17 127 85 119 62 -5 80 -2 114 15 34 18 50 20 113 14 78 -7 98 1 73 31 -12 15 -2 15 109 11 77 -3 128 -10 138 -18 10 -8 15 -31 15 -70 0 -32 7 -71 15 -86 8 -16 15 -48 15 -71 0 -23 4 -44 9 -47 4 -3 11 -24 15 -47 4 -23 13 -51 21 -62 9 -12 15 -44 15 -73 0 -34 5 -56 15 -64 43 -35 -11 -72 -120 -82 -44 -4 -105 -12 -135 -17 -30 -5 -108 -10 -173 -10 -95 -1 -119 -4 -123 -16 -4 -9 -19 -15 -39 -15 -19 0 -36 -4 -40 -9 -9 -16 31 -22 77 -11 23 6 120 15 213 20 242 14 319 24 354 49 40 29 45 50 27 122 -9 33 -16 73 -16 89 0 15 -6 33 -14 39 -7 6 -16 34 -20 62 -4 28 -11 58 -16 67 -5 10 -13 46 -19 82 -22 144 -44 208 -78 222 -21 8 -60 8 -168 -2z"/> <path d="M6600 2137 c0 -10 -18 -16 -61 -21 -34 -3 -67 -10 -73 -15 -6 -5 -22 -11 -35 -13 -14 -1 -26 -9 -29 -15 -5 -18 82 -17 97 1 7 8 20 12 31 9 11 -3 38 4 60 16 22 11 57 21 76 21 54 0 37 24 -19 28 -35 2 -47 0 -47 -11z"/> <path d="M7291 2075 c-18 -8 -53 -15 -76 -15 -25 0 -50 -6 -59 -15 -8 -8 -30 -15 -48 -15 -18 0 -46 -7 -62 -15 -15 -8 -40 -15 -55 -15 -14 -1 -37 -7 -51 -15 -14 -8 -43 -14 -66 -15 -22 0 -49 -7 -60 -15 -10 -8 -35 -15 -55 -15 -19 0 -44 -7 -55 -15 -10 -8 -35 -15 -55 -15 -19 0 -40 -5 -46 -11 -6 -6 -29 -15 -50 -20 -116 -25 -140 -31 -155 -39 -9 -5 -36 -13 -60 -16 -24 -4 -47 -10 -53 -14 -5 -4 -29 -11 -52 -15 -24 -4 -45 -11 -49 -16 -3 -5 -20 -9 -37 -9 -18 -1 -50 -9 -72 -20 -22 -11 -52 -19 -66 -20 -15 0 -40 -7 -55 -15 -16 -8 -41 -15 -55 -15 -14 0 -29 -3 -32 -6 -9 -9 -108 -43 -127 -44 -8 0 -27 -6 -41 -14 -14 -7 -47 -16 -72 -20 -26 -4 -49 -11 -52 -17 -4 -5 -18 -9 -32 -9 -14 0 -39 -6 -56 -13 -43 -19 -132 -46 -187 -57 -25 -5 -76 -16 -115 -25 -38 -9 -89 -20 -113 -25 -23 -5 -50 -13 -60 -18 -9 -5 -39 -12 -66 -16 -27 -3 -54 -10 -60 -15 -6 -5 -38 -12 -71 -16 -33 -4 -64 -10 -70 -15 -5 -4 -31 -11 -57 -14 -26 -4 -50 -11 -53 -17 -4 -5 -25 -9 -48 -9 -23 0 -55 -7 -71 -15 -15 -8 -49 -15 -75 -16 -25 0 -71 -5 -101 -10 -30 -6 -99 -14 -154 -20 -54 -5 -106 -14 -116 -19 -11 -6 -43 -10 -72 -11 -29 0 -75 -4 -103 -10 -27 -5 -108 -14 -179 -19 -72 -6 -136 -16 -144 -23 -11 -9 -121 -13 -421 -15 -223 -2 -413 -5 -421 -8 -49 -17 48 -24 342 -24 188 0 338 -4 352 -10 17 -6 35 -6 51 0 14 5 51 10 82 11 32 1 64 6 70 12 8 5 39 7 75 3 35 -3 68 -6 73 -7 6 0 29 6 53 13 37 11 46 10 71 -5 37 -21 81 -23 81 -2 0 9 -9 15 -24 15 -26 0 -47 19 -24 21 7 1 47 1 89 -1 51 -1 88 3 113 14 21 9 58 16 83 16 24 0 67 7 94 16 35 12 64 14 97 9 26 -4 63 -8 82 -8 30 -2 35 1 34 21 -1 20 4 22 60 22 38 0 70 6 82 14 12 8 44 18 73 22 28 4 54 11 57 15 3 5 22 9 42 9 20 0 50 7 66 15 15 8 48 15 71 15 24 0 50 6 57 13 21 22 74 28 88 12 13 -15 71 -21 84 -8 4 4 -3 15 -16 26 -23 18 -23 18 40 15 54 -3 62 -1 62 15 0 14 9 17 59 17 44 0 60 4 65 16 4 11 14 14 35 9 22 -5 35 -1 50 14 23 23 43 26 70 12 24 -13 58 -3 64 19 3 10 18 21 36 25 17 4 31 11 31 16 0 6 8 9 18 8 25 -4 95 11 110 23 6 6 26 8 42 4 25 -5 30 -2 30 14 0 16 7 20 33 20 20 0 44 9 57 20 18 15 31 18 60 14 29 -5 38 -2 43 10 5 12 20 16 55 16 32 0 54 5 62 15 7 8 25 15 41 15 15 0 34 7 43 15 8 8 32 15 55 15 26 0 43 5 49 16 6 11 27 18 68 20 32 3 61 8 64 13 3 5 21 11 40 14 48 7 132 38 148 54 7 7 31 13 53 13 26 0 42 5 45 15 5 11 22 15 64 15 39 0 62 5 70 15 7 8 29 15 50 15 24 0 40 5 44 15 4 11 20 15 55 15 30 0 51 5 54 13 3 8 29 13 78 15 40 1 75 6 78 11 4 5 20 11 36 13 19 2 31 10 33 21 4 22 -38 23 -87 2z"/> <path d="M1410 1733 c0 -18 5 -33 10 -33 13 0 13 30 0 50 -7 11 -10 7 -10 -17z"/> <path d="M1645 1720 c-3 -6 1 -13 10 -16 19 -8 30 0 20 15 -8 14 -22 14 -30 1z"/> <path d="M1695 1690 c-8 -12 20 -24 35 -15 6 3 8 11 5 16 -8 12 -32 12 -40 -1z"/> <path d="M1752 1658 c5 -15 37 -18 41 -3 1 6 -9 12 -22 13 -16 3 -22 -1 -19 -10z"/> <path d="M1822 1628 c3 -7 15 -15 27 -16 16 -3 22 1 19 10 -3 7 -15 15 -27 16 -16 3 -22 -1 -19 -10z"/> <path d="M1885 1600 c-8 -13 20 -24 41 -16 8 3 12 10 9 16 -8 13 -42 13 -50 0z"/> <path d="M3377 1603 c-3 -5 -2 -34 0 -65 4 -40 10 -58 19 -58 8 0 14 -10 14 -25 0 -16 6 -25 15 -25 8 0 15 8 15 19 0 10 -7 24 -15 31 -10 8 -15 31 -15 71 0 45 -3 59 -14 59 -8 0 -17 -3 -19 -7z"/> <path d="M1960 1571 c0 -5 6 -11 13 -13 17 -7 38 2 31 13 -7 12 -44 12 -44 0z"/> <path d="M2045 1540 c-4 -6 9 -10 32 -9 30 0 34 2 18 9 -27 12 -43 12 -50 0z"/> <path d="M1700 1445 c0 -10 7 -15 18 -13 21 4 19 22 -2 26 -10 2 -16 -3 -16 -13z"/> <path d="M1760 1410 c0 -5 6 -10 14 -10 8 0 18 5 21 10 3 6 -3 10 -14 10 -12 0 -21 -4 -21 -10z"/> <path d="M1822 1388 c3 -7 15 -15 27 -16 16 -3 22 1 19 10 -3 7 -15 15 -27 16 -16 3 -22 -1 -19 -10z"/> <path d="M1910 1360 c-12 -7 -11 -10 5 -16 11 -4 23 -13 27 -19 9 -15 80 -13 85 2 2 6 -12 10 -36 9 -27 0 -45 5 -53 16 -9 12 -17 15 -28 8z"/> <path d="M2070 1291 c0 -19 42 -23 58 -7 15 15 13 16 -21 16 -20 0 -37 -4 -37 -9z"/> <path d="M2192 1273 c-21 -8 -3 -23 29 -23 31 0 39 14 13 24 -18 7 -23 7 -42 -1z"/> <path d="M2322 1241 c-11 -7 -10 -10 3 -15 36 -13 105 -4 105 15 0 11 -91 12 -108 0z"/> <path d="M2460 1205 c0 -17 46 -21 68 -6 10 6 8 10 -10 14 -38 11 -58 8 -58 -8z"/> </g> </svg> 